/* XPM */
/* FROM: http://www.iconfinder.com/ajax/download/png/?id=21569&s=24 */
static char * arrow_xpm[] = {
"24 24 2 1",
" 	c None",
".	c #000000",
"                        ",
"                        ",
"                        ",
"                        ",
"                        ",
"                        ",
"               ...      ",
"             .....      ",
"             ....       ",
"             ....       ",
"            .. ..       ",
"           ..           ",
"          ..            ",
"         ..             ",
"        ..              ",
"       ..               ",
"      ..                ",
"     ..                 ",
"    ..                  ",
"                        ",
"                        ",
"                        ",
"                        ",
"                        "};
