/* XPM */
static char * done_xpm[] = {
"24 24 229 2",
"  	c None",
". 	c #A4A4A4",
"+ 	c #A1A1A1",
"@ 	c #613819",
"# 	c #633715",
"$ 	c #673A18",
"% 	c #6C3F1D",
"& 	c #72421E",
"* 	c #4B4D4E",
"= 	c #676769",
"- 	c #9D9B9B",
"; 	c #AAA9AA",
"> 	c #6B6B6B",
", 	c #525555",
"' 	c #623819",
") 	c #B58058",
"! 	c #BFA796",
"~ 	c #C9CCCD",
"{ 	c #8F9193",
"] 	c #696B6E",
"^ 	c #5B5E60",
"/ 	c #575757",
"( 	c #646464",
"_ 	c #929393",
": 	c #AEAEAC",
"< 	c #828282",
"[ 	c #6D6D6C",
"} 	c #606264",
"| 	c #6A6D6F",
"1 	c #8E9193",
"2 	c #BEA797",
"3 	c #B98A66",
"4 	c #613C20",
"5 	c #BE9E87",
"6 	c #CBCDCE",
"7 	c #F7F7F7",
"8 	c #7D7D7D",
"9 	c #666566",
"0 	c #666666",
"a 	c #757676",
"b 	c #959595",
"c 	c #B5B5B5",
"d 	c #C8C8C7",
"e 	c #BBBBBB",
"f 	c #9E9E9D",
"g 	c #7C7C7C",
"h 	c #69696A",
"i 	c #CCCDCE",
"j 	c #BEA38C",
"k 	c #613B1E",
"l 	c #C49A7C",
"m 	c #D6D7D7",
"n 	c #F2F2F2",
"o 	c #DADADA",
"p 	c #C1C1C1",
"q 	c #BFBFBF",
"r 	c #BEBEBE",
"s 	c #BDBDBD",
"t 	c #C0C0C0",
"u 	c #D9D9D9",
"v 	c #F3F3F3",
"w 	c #D5D6D7",
"x 	c #C79E7F",
"y 	c #613B1F",
"z 	c #623D21",
"A 	c #C18D68",
"B 	c #CFD1D3",
"C 	c #EFEFEF",
"D 	c #F0F0F0",
"E 	c #F1F1F1",
"F 	c #C79673",
"G 	c #613D20",
"H 	c #C2835A",
"I 	c #CBCED0",
"J 	c #F5F5F5",
"K 	c #CBCACA",
"L 	c #C5906A",
"M 	c #613D21",
"N 	c #BF7A48",
"O 	c #C7CACD",
"P 	c #C8C8C9",
"Q 	c #C58B61",
"R 	c #BF7846",
"S 	c #C4C2C1",
"T 	c #F4F4F4",
"U 	c #F6F6F6",
"V 	c #C48658",
"W 	c #C07B49",
"X 	c #C3B8B1",
"Y 	c #C4B7AF",
"Z 	c #C58859",
"` 	c #613C21",
" .	c #C27E4C",
"..	c #C2AEA0",
"+.	c #F8F8F8",
"@.	c #C1B0A4",
"#.	c #C5895B",
"$.	c #C37F4D",
"%.	c #C1A999",
"&.	c #C78A5B",
"*.	c #C27F4D",
"=.	c #B8A494",
"-.	c #B9A496",
";.	c #C4895A",
">.	c #C27D4D",
",.	c #BAA79B",
"'.	c #EEEEEE",
").	c #B9AAA1",
"!.	c #C68959",
"~.	c #C07A47",
"{.	c #B9AFA9",
"].	c #B9B5B1",
"^.	c #C88B5B",
"/.	c #B8B9B9",
"(.	c #EDEDED",
"_.	c #BFBFC0",
":.	c #B1AFB2",
"<.	c #B9B5B9",
"[.	c #BCB8BC",
"}.	c #9F9CA0",
"|.	c #A68471",
"1.	c #7D6C64",
"2.	c #C08359",
"3.	c #BDBCBB",
"4.	c #9E9B9E",
"5.	c #AACDA9",
"6.	c #C1F9BE",
"7.	c #5A7B58",
"8.	c #C0FBBC",
"9.	c #B6EEB3",
"0.	c #C0FCBE",
"a.	c #B5E4B2",
"b.	c #B2BAB2",
"c.	c #C0845D",
"d.	c #C0C2C3",
"e.	c #ECECEC",
"f.	c #EBEBEB",
"g.	c #E3E3E3",
"h.	c #E8E8E8",
"i.	c #E5E5E5",
"j.	c #BFBEBF",
"k.	c #90B78D",
"l.	c #AEE4AA",
"m.	c #587456",
"n.	c #EAFFE6",
"o.	c #62805F",
"p.	c #95C492",
"q.	c #40483F",
"r.	c #B1E9AD",
"s.	c #AEE6AA",
"t.	c #B7BBB6",
"u.	c #623D20",
"v.	c #BF8966",
"w.	c #C6C9CA",
"x.	c #EAEAEA",
"y.	c #E9E9E9",
"z.	c #A29DA2",
"A.	c #82CD82",
"B.	c #A8DEA3",
"C.	c #BCEEB7",
"D.	c #7C9179",
"E.	c #242C23",
"F.	c #536051",
"G.	c #BAEDB4",
"H.	c #A8DFA2",
"I.	c #B0C7AF",
"J.	c #BD9579",
"K.	c #D2D3D3",
"L.	c #A39EA3",
"M.	c #47AD4E",
"N.	c #41AD4B",
"O.	c #2F8B38",
"P.	c #4D784C",
"Q.	c #3D563A",
"R.	c #2E482D",
"S.	c #36953F",
"T.	c #41AC4B",
"U.	c #41AE4B",
"V.	c #4C7F4F",
"W.	c #B4886B",
"X.	c #B7ADA7",
"Y.	c #C1C0C1",
"Z.	c #539258",
"`.	c #2FA13E",
" +	c #49924E",
".+	c #065111",
"++	c #46914B",
"@+	c #48B253",
"#+	c #52714D",
"$+	c #2EA33E",
"%+	c #31A23E",
"&+	c #4D574C",
"*+	c #AC6E43",
"=+	c #B78362",
"-+	c #A9988B",
";+	c #B0B2B4",
">+	c #A5A7A9",
",+	c #9E9E9E",
"'+	c #A09792",
")+	c #A69589",
"!+	c #A99587",
"~+	c #A59182",
"{+	c #AA988A",
"]+	c #7C7070",
"^+	c #43874C",
"/+	c #17912D",
"(+	c #52BC5F",
"_+	c #0B9328",
":+	c #12972D",
"<+	c #0A9427",
"[+	c #2D8F39",
"}+	c #4F6250",
"|+	c #54341C",
"1+	c #523017",
"2+	c #4E2A0F",
"3+	c #4E2B10",
"4+	c #4E2C12",
"5+	c #4C2C14",
"6+	c #4B2C15",
"7+	c #492C15",
"8+	c #4A2C16",
"9+	c #4A2B14",
"0+	c #4A2B13",
"a+	c #3E291E",
"b+	c #49383A",
"c+	c #4F3D41",
"d+	c #503E42",
"e+	c #534044",
"f+	c #554248",
"                      . +                       ",
"        @ # $ % & * = - ; > , & % $ # '         ",
"      ) ! ~ { ] ^ / ( _ : < [ } | 1 ~ 2 3       ",
"    4 5 6 7 8 9 0 a b c d e f g h g 7 i j k     ",
"    4 l m n o p q q q r s s s r t u v w x y     ",
"    z A B v C C C D D E E D D C C C v B F k     ",
"    G H I J C D C E n E E n E C D C J K L y     ",
"    M N O J E E D v v n n v v D E E J P Q y     ",
"    z R S 7 E v v v v T T T T v v E U S V y     ",
"    z W X J E v T J T J T E v T v E U Y Z y     ",
"    `  ...J D v J J 7 +.J v T T T n U @.#.y     ",
"    4 $.%.J D T T U U J U U v J v n U ..&.y     ",
"    4 *.=.T C E v J T n T T D E E C J -.;.y     ",
"    4 >.,.J C E n T T J J T v n D '.J ).!.y     ",
"    M ~.{.T C D D E v v T T n n E E +.].^.      ",
"    M W /.v (.C C D v n n n C _.:.<.[.}.|.1.    ",
"    4 2.3.v '.'.'.D C D D '.4.5.6.7.8.9.0.a.b.  ",
"    G c.d.D e.f.g.h.i.C D j.k.l.m.n.o.p.q.r.s.t.",
"    u.v.w.C x.e.y.f.f.'.D z.A.B.C.D.E.F.G.B.H.I.",
"    G J.K.D y.f.(.e.e.'.C L.M.N.O.P.Q.R.S.T.U.V.",
"    u.W.X.+.E E n v n n v Y.Z.`. +.+++@+#+$+%+&+",
"      *+=+-+;+>+,+'+)+!+~+{+]+^+/+(+_+:+<+[+}+  ",
"        |+1+2+3+4+5+6+7+8+9+0+a+b+c+d+e+f+      ",
"                                                "};
