/* XPM */
static char * ellipse_xpm[] = {
"24 24 11 1",
" 	c None",
".	c #314E6C",
"+	c #59718B",
"@	c #3E5B79",
"#	c #385573",
"$	c #3B5876",
"%	c #49637F",
"&	c #3D5A77",
"*	c #425C78",
"=	c #3F5B79",
"-	c #425F7C",
"                        ",
"                        ",
"                        ",
"                        ",
"        ......          ",
"     .+        @.       ",
"    .            .      ",
"   #              $     ",
"  .                .    ",
" .                  .   ",
" .                  .   ",
" .                  .   ",
" .                  .   ",
" .                  .   ",
" .                  .   ",
"  .                .    ",
"   %              &     ",
"    *            .      ",
"     .=        -.       ",
"        ......          ",
"                        ",
"                        ",
"                        ",
"                        "};
