/* XPM */
static char * line_xpm[] = {
"24 24 63 1",
" 	c None",
".	c #000000",
"+	c #BFAFAC",
"@	c #8D6D68",
"#	c #AA5B4F",
"$	c #B9594D",
"%	c #3B3B3B",
"&	c #AB928D",
"*	c #913120",
"=	c #862F21",
"-	c #CF523E",
";	c #C3ABA6",
">	c #611E12",
",	c #983525",
"'	c #E39A8E",
")	c #B3958F",
"!	c #A23521",
"~	c #882F21",
"{	c #DB7E70",
"]	c #837370",
"^	c #E5DEDC",
"/	c #BDA6A1",
"(	c #A28E8A",
"_	c #CA7C73",
":	c #E4A49B",
"<	c #242424",
"[	c #E1E1E1",
"}	c #CCCCCC",
"|	c #B8B8B8",
"1	c #E0D7D6",
"2	c #9E9493",
"3	c #CCBCA0",
"4	c #D8A944",
"5	c #AC8C3A",
"6	c #EACE79",
"7	c #D6D6D6",
"8	c #434343",
"9	c #BEAB88",
"0	c #797979",
"a	c #C7B492",
"b	c #EFDDA2",
"c	c #695F44",
"d	c #DBC090",
"e	c #868479",
"f	c #D4C49F",
"g	c #F7EFD6",
"h	c #E3D2B9",
"i	c #858173",
"j	c #6E6E6E",
"k	c #A07E57",
"l	c #B99569",
"m	c #BDA88F",
"n	c #9B8367",
"o	c #B39E86",
"p	c #B89F83",
"q	c #CBB090",
"r	c #D4CDB7",
"s	c #9E9182",
"t	c #B4ACA3",
"u	c #DAD4C1",
"v	c #6F6B67",
"w	c #9E9D9C",
"x	c #5B5956",
"                   .... ",
"                  .+@#$.",
".                 %&*=-.",
" ..              .;>,-'.",
"   ..            %)!~{].",
"     .          .^/(_:. ",
"      .         <[}|12. ",
"       .       .34567.  ",
"        .      894560.  ",
"        .     .a456b.c  ",
"        .     8d456e.   ",
"        .    .f456g.    ",
"        .    8h456i.    ",
"        .    jkllg.     ",
"       .    .mnlgi.     ",
"       .    .opqr.      ",
"       .    .stu.       ",
"       .    .vw.        ",
"        .   .x.         ",
"         .  ..          ",
"          ...           ",
"                        ",
"                        ",
"                        "};
