/* XPM */
static char * quit_xpm[] = {
"24 24 158 2",
"  	c None",
". 	c #CB7732",
"+ 	c #CC8B4B",
"@ 	c #C28443",
"# 	c #BC7436",
"$ 	c #E2A464",
"% 	c #D2914D",
"& 	c #895E30",
"* 	c #CA7631",
"= 	c #B76B2C",
"- 	c #DA883E",
"; 	c #E7AE73",
"> 	c #D89551",
", 	c #B47B3F",
"' 	c #7E7E7F",
") 	c #B66A2C",
"! 	c #D9853A",
"~ 	c #DA883F",
"{ 	c #E6A96C",
"] 	c #E0A05F",
"^ 	c #C98B49",
"/ 	c #007300",
"( 	c #A37A58",
"_ 	c #B4692C",
": 	c #D78439",
"< 	c #E8B177",
"[ 	c #855229",
"} 	c #69871A",
"| 	c #009900",
"1 	c #C87430",
"2 	c #B3682B",
"3 	c #D68238",
"4 	c #DC9350",
"5 	c #824F27",
"6 	c #7FCD7F",
"7 	c #C7732F",
"8 	c #B2662A",
"9 	c #D48037",
"0 	c #DA904D",
"a 	c #824E26",
"b 	c #008F00",
"c 	c #7FCC7E",
"d 	c #80CD7F",
"e 	c #C6722F",
"f 	c #B06429",
"g 	c #D27E36",
"h 	c #D78D4A",
"i 	c #814D25",
"j 	c #008B00",
"k 	c #7DCC7B",
"l 	c #6DC66C",
"m 	c #80CD7E",
"n 	c #82CE7F",
"o 	c #83CF80",
"p 	c #85D082",
"q 	c #87D183",
"r 	c #89D286",
"s 	c #73CA6F",
"t 	c #C5712E",
"u 	c #AE6328",
"v 	c #D07C34",
"w 	c #D58A47",
"x 	c #804C24",
"y 	c #008700",
"z 	c #7DCC7C",
"A 	c #66C364",
"B 	c #57BD55",
"C 	c #51BB4E",
"D 	c #51BC4E",
"E 	c #55BE50",
"F 	c #59BF54",
"G 	c #61C35D",
"H 	c #72CA6D",
"I 	c #77CC72",
"J 	c #C36F2D",
"K 	c #AC6127",
"L 	c #CD7A33",
"M 	c #D28644",
"N 	c #7F4B23",
"O 	c #008300",
"P 	c #81CD80",
"Q 	c #60C15E",
"R 	c #33AF30",
"S 	c #28AC25",
"T 	c #2EAE2A",
"U 	c #34B12F",
"V 	c #3AB435",
"W 	c #40B63B",
"X 	c #46B940",
"Y 	c #55BF4E",
"Z 	c #74CB6F",
"` 	c #C16E2C",
" .	c #AA5F26",
"..	c #CB7731",
"+.	c #CF8241",
"@.	c #896141",
"#.	c #4CB949",
"$.	c #30AF2D",
"%.	c #4CBC45",
"&.	c #5AC253",
"*.	c #79CE73",
"=.	c #C06C2B",
"-.	c #A75D24",
";.	c #C8742F",
">.	c #8E735D",
",.	c #C17C42",
"'.	c #948476",
").	c #55BD52",
"!.	c #46B842",
"~.	c #62C35D",
"{.	c #66C562",
"].	c #6BC766",
"^.	c #70C96A",
"/.	c #7ED077",
"(.	c #A45A22",
"_.	c #C4712D",
":.	c #986D4A",
"<.	c #985D2F",
"[.	c #776558",
"}.	c #9C7354",
"|.	c #A15821",
"1.	c #C16E2B",
"2.	c #C47636",
"3.	c #735946",
"4.	c #0C910A",
"5.	c #B96627",
"6.	c #9E541F",
"7.	c #BD6A29",
"8.	c #C07132",
"9.	c #76411B",
"0.	c #557712",
"a.	c #B76426",
"b.	c #9B511D",
"c.	c #B96626",
"d.	c #BB6C2E",
"e.	c #7B441C",
"f.	c #A35821",
"g.	c #B46124",
"h.	c #984E1C",
"i.	c #B56224",
"j.	c #B7672A",
"k.	c #7B431B",
"l.	c #B25F22",
"m.	c #9A501C",
"n.	c #B15E21",
"o.	c #B36227",
"p.	c #7C4219",
"q.	c #A7571F",
"r.	c #B05D21",
"s.	c #B26024",
"t.	c #7D4319",
"u.	c #A9591F",
"v.	c #B15E22",
"w.	c #804318",
"x.	c #AA5920",
"y.	c #834518",
"z.	c #AC5B20",
"A.	c #884719",
"                                                ",
". . . . . . . . . . . . . . . .                 ",
". + @                         .                 ",
". # $ % &                     .                 ",
"* = - ; > ,                   *                 ",
"' ) ! ~ { ] ^                 *   /             ",
"( _ : : : < [                 } | /             ",
"1 2 3 3 3 4 5                 | 6 /             ",
"7 8 9 9 9 0 a             b | c d | | | | | | / ",
"e f g g g h i           j | k l m n o p q r s / ",
"t u v v v w x         y | z A B C D E F G H I / ",
"J K L L L M N       O | P Q R S T U V W X Y Z / ",
"`  .......+.@.        y | #.$.T U V W X %.&.*./ ",
"=.-.;.;.>.,.'.          j | ).!.~.{.].^.Z *././ ",
"' (._._.:.<.[.            b | ~.{./ / / / / / / ",
"}.|.1.1.1.2.3.              4.| ]./             ",
"5.6.7.7.7.8.9.                0.| /             ",
"a.b.c.c.c.d.e.                f.  /             ",
"g.h.i.i.i.j.k.                g.                ",
"l.m.n.n.n.o.p.                l.                ",
"    q.r.r.s.t.                                  ",
"      u.r.v.w.                                  ",
"        x.r.y.                                  ",
"          z.A.                                  "};
