/* XPM */
static char * save_xpm[] = {
"24 24 173 2",
"  	c None",
". 	c #24508B",
"+ 	c #204A86",
"@ 	c #204A87",
"# 	c #CE5C00",
"$ 	c #204988",
"% 	c #234D8A",
"& 	c #204B88",
"* 	c #B6CBE2",
"= 	c #9EB6D2",
"- 	c #FCAF3E",
"; 	c #7F9EC4",
"> 	c #8FACCF",
", 	c #204B87",
"' 	c #BFD1E7",
") 	c #E2E2DF",
"! 	c #EEEEEC",
"~ 	c #91AED1",
"{ 	c #C0D2E7",
"] 	c #6184B2",
"^ 	c #F0F0EE",
"/ 	c #5B7EAD",
"( 	c #8FADD0",
"_ 	c #C1D3E8",
": 	c #3A669F",
"< 	c #D8DBD5",
"[ 	c #D3D7CF",
"} 	c #335E9A",
"| 	c #8EACD0",
"1 	c #C1D4E8",
"2 	c #3B66A0",
"3 	c #F7F7F6",
"4 	c #335F9B",
"5 	c #8CABD0",
"6 	c #C3D5E9",
"7 	c #3C67A1",
"8 	c #FAFAFA",
"9 	c #34609B",
"0 	c #8AAAD0",
"a 	c #3D68A1",
"b 	c #DADDD7",
"c 	c #35619C",
"d 	c #89A9CF",
"e 	c #C3D5EA",
"f 	c #3E69A2",
"g 	c #FEFEFE",
"h 	c #36629D",
"i 	c #88A9D0",
"j 	c #C2D5E9",
"k 	c #3F6AA2",
"l 	c #37639D",
"m 	c #87A8CF",
"n 	c #C1D4E9",
"o 	c #406BA4",
"p 	c #39649E",
"q 	c #85A8D0",
"r 	c #BED3E9",
"s 	c #5581B6",
"t 	c #406BA3",
"u 	c #3F6AA3",
"v 	c #3D69A1",
"w 	c #3B67A0",
"x 	c #3A659F",
"y 	c #4977AD",
"z 	c #84A7CF",
"A 	c #BCD1E8",
"B 	c #719ECE",
"C 	c #709DCD",
"D 	c #6F9CCD",
"E 	c #6E9BCC",
"F 	c #6C9ACB",
"G 	c #6B99CA",
"H 	c #6A97C9",
"I 	c #6997C9",
"J 	c #6895C8",
"K 	c #6794C7",
"L 	c #6593C6",
"M 	c #6492C5",
"N 	c #6391C4",
"O 	c #6290C4",
"P 	c #618FC3",
"Q 	c #83A8D0",
"R 	c #B9CFE7",
"S 	c #617482",
"T 	c #555753",
"U 	c #55687D",
"V 	c #4976AD",
"W 	c #4975AD",
"X 	c #4C79B0",
"Y 	c #5786B9",
"Z 	c #B7CEE6",
"` 	c #555854",
" .	c #D1D5CD",
"..	c #DBDED9",
"+.	c #E0E3DE",
"@.	c #E6E7E4",
"#.	c #EBECE9",
"$.	c #EFF0ED",
"%.	c #EBEDEA",
"&.	c #E8E9E7",
"*.	c #D8DAD7",
"=.	c #565855",
"-.	c #6D99CA",
";.	c #6E9ACA",
">.	c #6D99C9",
",.	c #5583B8",
"'.	c #82A7D0",
").	c #B5CCE5",
"!.	c #ADB4A6",
"~.	c #D8DAD5",
"{.	c #D0D2CC",
"].	c #C7CAC3",
"^.	c #C0C4BD",
"/.	c #D7D9D5",
"(.	c #6B98CA",
"_.	c #6B97C9",
":.	c #77A1CE",
"<.	c #5C8ABD",
"[.	c #B3CBE5",
"}.	c #DDE0DB",
"|.	c #B6BCAF",
"1.	c #4979B3",
"2.	c #D3D5CF",
"3.	c #CACDC6",
"4.	c #C1C5BD",
"5.	c #BABEB7",
"6.	c #D5D8D3",
"7.	c #6D9ACB",
"8.	c #6D9ACA",
"9.	c #80A7D2",
"0.	c #5E8BBE",
"a.	c #80A7D1",
"b.	c #B0C9E4",
"c.	c #739FCF",
"d.	c #E1E3DE",
"e.	c #BEC3B9",
"f.	c #6190C3",
"g.	c #CDD0C9",
"h.	c #C4C7C0",
"i.	c #BBBFB8",
"j.	c #BEC2BA",
"k.	c #D4D7D2",
"l.	c #709CCD",
"m.	c #89ADD5",
"n.	c #608DBF",
"o.	c #94B3D5",
"p.	c #99B9DC",
"q.	c #E4E6E2",
"r.	c #C7CBC2",
"s.	c #BABEB6",
"t.	c #C5C8C1",
"u.	c #D5D7D3",
"v.	c #729ECF",
"w.	c #8FB2D8",
"x.	c #628FC1",
"y.	c #7FA7D2",
"z.	c #28528E",
"A.	c #8DAED3",
"B.	c #E7E9E5",
"C.	c #ECEEEB",
"D.	c #F1F2F0",
"E.	c #ECEDEB",
"F.	c #DADDD8",
"G.	c #CFD2CD",
"H.	c #CFD2CC",
"I.	c #D2D4CF",
"J.	c #8BAFD7",
"K.	c #89AFD6",
"L.	c #9DBCDD",
"M.	c #779ECA",
"N.	c #7CA4D1",
"O.	c #204A88",
"P.	c #234980",
"                                                ",
"  . + @ # # # # # # # # # # # # # # # @ $ %     ",
"  & * = - - - - - - - - - - - - - - - ; > ,     ",
"  @ ' @ ) ! ! ! ! ! ! ! ! ! ! ! ! ! ) @ ~ @     ",
"  @ { ] ) ^ ^ ^ ^ ^ ^ ^ ^ ^ ^ ^ ^ ^ ) / ( @     ",
"  @ _ : ) < [ [ [ [ [ [ [ [ [ [ [ < ) } | @     ",
"  @ 1 2 ) 3 3 3 3 3 3 3 3 3 3 3 3 3 ) 4 5 @     ",
"  @ 6 7 ) 8 8 8 8 8 8 8 8 8 8 8 8 8 ) 9 0 @     ",
"  @ 6 a ) b [ [ [ [ [ [ [ [ [ [ [ b ) c d @     ",
"  @ e f ) g g g g g g g g g g g g g ) h i @     ",
"  @ j k ) g g g g g g g g g g g g g ) l m @     ",
"  @ n o ) ) ) ) ) ) ) ) ) ) ) ) ) ) ) p q @     ",
"  @ r s t u u k f v a a 7 w 2 2 : x x y z @     ",
"  @ A B B B C D E F G H I J K L M N O P Q @     ",
"  @ R B S T T T T T T T T T T U V W X Y Q @     ",
"  @ Z B `  ...+.@.#.^ $.%.&.*.=.-.;.>.,.'.@     ",
"  @ ).B T b !.T T T ~.{.].^./.T (._.:.<.'.@     ",
"  @ [.B T }.|.T 1.T 2.3.4.5.6.T 7.8.9.0.a.@     ",
"  @ b.c.T d.e.T f.T g.h.i.j.k.T D l.m.n.9.@     ",
"  @ o.p.T q.r.T T T ].j.s.t.u.T B v.w.x.y.@     ",
"    z.A.T B.C.D.E.q.F.G.H.I./.T J.K.L.M.N.&     ",
"      @ T T T T T T T T T T T T @ @ @ @ O.P.    ",
"                                                ",
"                                                "};
