/* XPM */
/* FROM: http://cdn1.iconfinder.com/data/icons/cc_mono_icon_set/blacks/32x32/text_letter_t.png */
static char * text_xpm[] = {
"24 24 27 1",
" 	c None",
".	c #313131",
"+	c #2F2F2F",
"@	c #2D2D2D",
"#	c #2B2B2B",
"$	c #282828",
"%	c #292929",
"&	c #272727",
"*	c #242424",
"=	c #232323",
"-	c #202020",
";	c #1E1E1E",
">	c #1C1C1C",
",	c #1A1A1A",
"'	c #181818",
")	c #151515",
"!	c #141414",
"~	c #111111",
"{	c #101010",
"]	c #0D0D0D",
"^	c #0B0B0B",
"/	c #090909",
"(	c #070707",
"_	c #040404",
":	c #020202",
"<	c #030303",
"[	c #010101",
" ...................... ",
" ++++++++++++++++++++++ ",
" @@@@@@@@@@@@@@@@@@@@@@ ",
" ##       ####       ## ",
" $%       $$$$        $ ",
" &        &&&&        & ",
" *        ****        * ",
"          ====          ",
"          ----          ",
"          ;;;;          ",
"          >>>>          ",
"          ,,,,          ",
"          ''''          ",
"          ))))          ",
"          !!!!          ",
"          ~~~~          ",
"          {{{{          ",
"          ]]]]          ",
"          ^^^^          ",
"          ////          ",
"          ((((          ",
"         ______         ",
"       ::<:<<:<::       ",
"       [[[[[[[[[[       "};
